# xmcd
#
# Track frame offsets: 
#        150
#        19475
#        38604
#        50996
#        65301
#        77934
#        90673
#        101190
#        115220
#        128171
#        145910
#        160326
#        173909
#        188579
#        203199
#        217822
#        232525
#        245192
#        258944
#        271930
#        285115
#        298244
#
# Disc length: 4143 seconds
#
# Revision: 0
# Processed by: cddbd v1.5.2PL0 Copyright (c) Steve Scherf et al.
# Submitted via: ExactAudioCopyFreeDBPlugin 1.0
#
DISCID=40102d16
DTITLE=Josie Miles - Complete Recorded Works Vol. 2 (1924-1925)
DYEAR=1996
DGENRE=Blues
TTITLE0=Temper'mental Papa
TTITLE1=Sweet Man Joe
TTITLE2=Believe Me, Hot Mama
TTITLE3=Won't Somebody Help Me Find My Lovin' Man?
TTITLE4=South Bound Blues
TTITLE5=I'm Done, Done, Done, with You
TTITLE6=A to Z Blues
TTITLE7=Satisfied
TTITLE8=Picnic Time
TTITLE9=Mad Mama's Blues
TTITLE10=Let's Agree to Disagree
TTITLE11=Cross Word Papa (You Sure Puzzle Me)
TTITLE12=I'm a Cabaret Nightingale
TTITLE13=There'll Be Some Changes Made
TTITLE14=De Clouds Are Gwine to Roll Away
TTITLE15=It Ain't Gonna Rain No Mo'
TTITLE16=Bitter Feelin' Blues
TTITLE17=Thunderstorm Blues
TTITLE18=It's the Last Time I'll Be a Pastime for You
TTITLE19=Give Me Just a Little Bit of Love
TTITLE20=At the Cake Walk Stepper's Ball
TTITLE21=Low Down Daddy Blues
EXTD=
EXTT0=
EXTT1=
EXTT2=
EXTT3=
EXTT4=
EXTT5=
EXTT6=
EXTT7=
EXTT8=
EXTT9=
EXTT10=
EXTT11=
EXTT12=
EXTT13=
EXTT14=
EXTT15=
EXTT16=
EXTT17=
EXTT18=
EXTT19=
EXTT20=
EXTT21=
PLAYORDER=
